# 3ds Max Wavefront OBJ Exporter v0.97b - (c)2007 guruware
# File Created: 03.03.2019 18:35:50

mtllib liver.mtl

#
# object liver
#

v  -19.6032 1.9246 40.7009
v  -15.6062 30.2484 23.6239
v  -38.2235 23.5084 20.0417
v  -51.7381 4.6905 30.9841
v  28.5097 25.9844 18.8259
v  10.4401 28.4271 22.3531
v  10.9921 0.9720 38.8888
v  29.8291 5.2302 31.0429
v  1.3713 -40.2432 16.4620
v  13.1245 -23.2394 22.3531
v  -17.4774 -25.1054 36.3089
v  -14.8626 -44.1155 24.9166
v  -39.4158 -42.1052 21.1825
v  -49.3448 -22.2104 28.5481
v  31.0945 -12.7296 18.8259
v  52.6795 23.1075 11.9907
v  56.0855 13.0132 11.9907
v  50.1085 -0.1205 11.9907
v  -2.5253 -68.2055 9.1839
v  -11.2145 -70.4950 9.1839
v  -21.7763 -65.8224 9.1839
v  -42.9006 28.1358 -0.0000
v  -58.9981 5.3858 -0.0000
v  -15.8586 36.1944 -0.0000
v  36.8881 31.0962 -0.0000
v  15.2834 34.0169 -0.0000
v  7.7913 -48.6998 -0.0000
v  22.2406 -32.6428 -0.0000
v  -56.1976 -26.5272 -0.0000
v  -44.2127 -49.9449 -0.0000
v  40.7017 -20.0718 -0.0000
v  59.7222 15.0416 -0.0000
v  55.3192 26.7439 -0.0000
v  54.8392 -1.4325 -0.0000
v  -10.7594 -74.2575 -0.0000
v  0.9747 -71.5201 -0.0000
v  -24.2222 -68.6708 -0.0000
v  -19.6032 1.9246 -40.7009
v  -51.7381 4.6905 -30.9841
v  -38.2235 23.5084 -20.0417
v  -15.6062 30.2484 -23.6239
v  28.5097 25.9844 -18.8259
v  29.8291 5.2302 -31.0429
v  10.9921 0.9720 -38.8888
v  10.4401 28.4271 -22.3531
v  1.3713 -40.2432 -16.4620
v  -14.8626 -44.1155 -24.9166
v  -17.4774 -25.1054 -36.3089
v  13.1245 -23.2394 -22.3531
v  -39.4158 -42.1052 -21.1825
v  -49.3448 -22.2104 -28.5481
v  31.0945 -12.7296 -18.8259
v  52.6795 23.1075 -11.9907
v  56.0855 13.0132 -11.9907
v  50.1085 -0.1205 -11.9907
v  -2.5253 -68.2055 -9.1839
v  -11.2145 -70.4950 -9.1839
v  -21.7763 -65.8224 -9.1839
# 58 vertices

vn -0.2338 0.5595 0.7952
vn 0.2314 0.5049 0.8316
vn 0.4262 -0.4770 0.7686
vn 0.2386 -0.3501 0.9058
vn -0.2150 -0.4795 0.8508
vn -0.2725 -0.1433 0.9514
vn 0.4299 -0.4847 0.7617
vn 0.0717 0.5116 0.8563
vn 0.3902 0.3901 0.8340
vn 0.5814 -0.3723 0.7234
vn 0.3785 -0.3624 0.8517
vn -0.1895 -0.5359 0.8227
vn -0.7595 0.6044 0.2407
vn -0.2930 0.9212 0.2561
vn 0.1537 0.9432 0.2945
vn 0.6226 -0.5859 0.5188
vn -0.8265 -0.4707 0.3087
vn -0.9673 -0.0952 0.2351
vn 0.4948 -0.7030 0.5109
vn 0.0731 0.9656 0.2496
vn 0.8950 0.3207 0.3100
vn 0.2097 0.9183 0.3357
vn 0.8949 -0.3282 0.3024
vn 0.6546 -0.5915 0.4707
vn 0.2199 -0.8935 0.3916
vn 0.8609 -0.2455 0.4457
vn -0.3679 -0.8615 0.3499
vn -0.6329 -0.6706 0.3870
vn -0.2338 0.5595 -0.7952
vn 0.2314 0.5049 -0.8316
vn 0.4262 -0.4770 -0.7686
vn 0.2386 -0.3501 -0.9058
vn -0.2150 -0.4795 -0.8508
vn -0.2725 -0.1433 -0.9514
vn 0.4299 -0.4847 -0.7617
vn 0.0717 0.5116 -0.8563
vn 0.3902 0.3901 -0.8340
vn 0.5814 -0.3723 -0.7234
vn 0.3785 -0.3624 -0.8517
vn -0.1895 -0.5359 -0.8227
vn -0.7595 0.6044 -0.2407
vn -0.2930 0.9212 -0.2561
vn 0.1537 0.9432 -0.2945
vn 0.6226 -0.5859 -0.5188
vn -0.8265 -0.4707 -0.3087
vn -0.9673 -0.0952 -0.2351
vn 0.4948 -0.7030 -0.5109
vn 0.0731 0.9656 -0.2496
vn 0.8950 0.3207 -0.3100
vn 0.2097 0.9183 -0.3357
vn 0.8949 -0.3282 -0.3024
vn 0.6546 -0.5915 -0.4707
vn 0.2199 -0.8935 -0.3916
vn 0.8609 -0.2455 -0.4457
vn -0.3679 -0.8615 -0.3499
vn -0.6329 -0.6706 -0.3870
# 56 vertex normals

vt 0.3946 0.6020 0.0000
vt 0.4030 0.7926 0.0000
vt 0.2431 0.7496 0.0000
vt 0.1808 0.6165 0.0000
vt 0.7158 0.7863 0.0000
vt 0.5860 0.7942 0.0000
vt 0.5925 0.6058 0.0000
vt 0.7149 0.6404 0.0000
vt 0.5512 0.3207 0.0000
vt 0.6335 0.4382 0.0000
vt 0.4095 0.4443 0.0000
vt 0.4201 0.3217 0.0000
vt 0.2397 0.3430 0.0000
vt 0.1878 0.4698 0.0000
vt 0.7573 0.5183 0.0000
vt 0.8885 0.7627 0.0000
vt 0.9137 0.7035 0.0000
vt 0.8853 0.6163 0.0000
vt 0.4886 0.1511 0.0000
vt 0.4256 0.1427 0.0000
vt 0.3487 0.1729 0.0000
vt 0.1649 0.8333 0.0000
vt 0.0295 0.6571 0.0000
vt 0.3791 0.9163 0.0000
vt 0.7959 0.8770 0.0000
vt 0.6257 0.9145 0.0000
vt 0.6223 0.2327 0.0000
vt 0.7406 0.3396 0.0000
vt 0.0426 0.4148 0.0000
vt 0.1535 0.2479 0.0000
vt 0.8678 0.4530 0.0000
vt 0.9774 0.7210 0.0000
vt 0.9354 0.8114 0.0000
vt 0.9544 0.5983 0.0000
vt 0.4243 0.0906 0.0000
vt 0.5213 0.1048 0.0000
vt 0.3163 0.1282 0.0000
# 37 texture coords

g liver
usemtl wire_224086086
s off
f 1/1/1 2/2/1 3/3/1 4/4/1 
f 5/5/2 6/6/2 7/7/2 8/8/2 
f 9/9/3 10/10/3 11/11/3 12/12/3 
f 7/7/4 1/1/4 11/11/4 10/10/4 
f 13/13/5 12/12/5 11/11/5 14/14/5 
f 11/11/6 1/1/6 4/4/6 14/14/6 
f 15/15/7 8/8/7 7/7/7 10/10/7 
f 2/2/8 1/1/8 7/7/8 6/6/8 
f 16/16/9 5/5/9 8/8/9 17/17/9 
f 8/8/10 15/15/10 18/18/10 17/17/10 
f 19/19/11 9/9/11 12/12/11 20/20/11 
f 12/12/12 13/13/12 21/21/12 20/20/12 
f 22/22/13 23/23/13 4/4/13 3/3/13 
f 24/24/14 22/22/14 3/3/14 2/2/14 
f 25/25/15 26/26/15 6/6/15 5/5/15 
f 27/27/16 28/28/16 10/10/16 9/9/16 
f 29/29/17 30/30/17 13/13/17 14/14/17 
f 23/23/18 29/29/18 14/14/18 4/4/18 
f 28/28/19 31/31/19 15/15/19 10/10/19 
f 26/26/20 24/24/20 2/2/20 6/6/20 
f 32/32/21 33/33/21 16/16/21 17/17/21 
f 33/33/22 25/25/22 5/5/22 16/16/22 
f 34/34/23 32/32/23 17/17/23 18/18/23 
f 31/31/24 34/34/24 18/18/24 15/15/24 
f 35/35/25 36/36/25 19/19/25 20/20/25 
f 36/36/26 27/27/26 9/9/26 19/19/26 
f 37/37/27 35/35/27 20/20/27 21/21/27 
f 30/30/28 37/37/28 21/21/28 13/13/28 
f 38/1/29 39/4/29 40/3/29 41/2/29 
f 42/5/30 43/8/30 44/7/30 45/6/30 
f 46/9/31 47/12/31 48/11/31 49/10/31 
f 44/7/32 49/10/32 48/11/32 38/1/32 
f 50/13/33 51/14/33 48/11/33 47/12/33 
f 48/11/34 51/14/34 39/4/34 38/1/34 
f 52/15/35 49/10/35 44/7/35 43/8/35 
f 41/2/36 45/6/36 44/7/36 38/1/36 
f 53/16/37 54/17/37 43/8/37 42/5/37 
f 43/8/38 54/17/38 55/18/38 52/15/38 
f 56/19/39 57/20/39 47/12/39 46/9/39 
f 47/12/40 57/20/40 58/21/40 50/13/40 
f 22/22/41 40/3/41 39/4/41 23/23/41 
f 24/24/42 41/2/42 40/3/42 22/22/42 
f 25/25/43 42/5/43 45/6/43 26/26/43 
f 27/27/44 46/9/44 49/10/44 28/28/44 
f 29/29/45 51/14/45 50/13/45 30/30/45 
f 23/23/46 39/4/46 51/14/46 29/29/46 
f 28/28/47 49/10/47 52/15/47 31/31/47 
f 26/26/48 45/6/48 41/2/48 24/24/48 
f 32/32/49 54/17/49 53/16/49 33/33/49 
f 33/33/50 53/16/50 42/5/50 25/25/50 
f 34/34/51 55/18/51 54/17/51 32/32/51 
f 31/31/52 52/15/52 55/18/52 34/34/52 
f 35/35/53 57/20/53 56/19/53 36/36/53 
f 36/36/54 56/19/54 46/9/54 27/27/54 
f 37/37/55 58/21/55 57/20/55 35/35/55 
f 30/30/56 50/13/56 58/21/56 37/37/56 
# 56 polygons

